<?xml version="1.0" encoding="UTF-8"?>
<!DOCTYPE svg PUBLIC "-//W3C//DTD SVG 1.1//EN" "http://www.w3.org/Graphics/SVG/1.1/DTD/svg11.dtd">
<!-- Creator: CorelDRAW X5 -->
<svg xmlns="http://www.w3.org/2000/svg" xml:space="preserve" width="210mm" height="116.668mm" style="shape-rendering:geometricPrecision; text-rendering:geometricPrecision; image-rendering:optimizeQuality; fill-rule:evenodd; clip-rule:evenodd"
viewBox="0 0 21000 11667"
 xmlns:xlink="http://www.w3.org/1999/xlink">
 <defs>
  <style type="text/css">
   <![CDATA[
    .fil0 {fill:#2DB5C0;fill-rule:nonzero}
   ]]>
  </style>
 </defs>
 <g id="Layer_x0020_1">
  <metadata id="CorelCorpID_0Corel-Layer"/>
  <path id="Shape" class="fil0" d="M16954 9343c-60,-3 -131,-8 -173,-14 -76,-10 -149,-35 -215,-74 -64,-40 -115,-98 -146,-167 -37,-73 -55,-170 -55,-291l0 -3442c0,-19 -7,-36 -21,-50 -13,-13 -31,-21 -50,-21l-1328 0c-38,0 -70,31 -70,69 -1,149 111,275 259,293 10,1 21,2 28,4 76,11 149,39 213,82 63,46 113,108 144,180 37,79 55,183 55,311l0 1694c2,182 -18,364 -60,542 -34,151 -97,294 -187,420 -84,115 -194,208 -322,271 -130,64 -285,97 -468,97 -165,0 -304,-25 -415,-74 -107,-46 -199,-122 -265,-219 -69,-107 -117,-227 -140,-353 -30,-158 -43,-318 -41,-478l0 -2767c0,-39 -32,-71 -71,-71l-1335 0c-38,0 -69,31 -69,69 0,149 112,275 260,293l23 3c76,12 149,39 214,80 64,42 114,102 146,171 37,73 55,170 55,291l0 1971c0,281 30,523 90,726 60,203 147,370 262,502 115,131 262,230 426,288 186,65 382,96 578,93 129,0 258,-10 385,-31 254,-40 489,-159 672,-339 68,-64 185,-210 256,-300 9,-11 24,-15 37,-11 13,5 22,17 23,31 0,151 59,296 166,403 107,107 252,167 403,167l4477 0c32,0 58,-26 58,-58l0 -234c0,-32 -26,-58 -58,-58l-3742 0zm-5168 -3982c-146,-105 -369,-157 -669,-156 -183,0 -333,23 -454,70 -113,42 -216,108 -303,191 -83,84 -153,180 -207,286 -29,56 -82,146 -127,220 -9,17 -28,25 -47,20 -18,-5 -31,-22 -31,-41l0 -319c-1,-192 -156,-348 -349,-349l-1146 0c-38,0 -69,31 -70,69 -1,153 119,279 272,286 66,3 126,7 154,11 76,11 149,39 214,80 64,42 115,102 146,171 37,73 55,170 55,291l0 3433c0,36 30,66 66,66l1537 0c39,0 70,-31 70,-70l0 -206c0,-39 -31,-70 -70,-70l-158 0c-87,0 -174,-6 -260,-18 -76,-11 -149,-36 -215,-74 -64,-40 -115,-98 -145,-167 -37,-73 -55,-170 -55,-291l0 -1292c0,-105 5,-221 17,-350 11,-130 29,-259 54,-387 26,-129 59,-255 101,-380 37,-115 89,-224 153,-326 55,-89 126,-167 210,-229 80,-57 176,-87 273,-86 160,0 273,50 338,150 57,90 89,231 95,423 2,38 34,68 72,67 95,-2 190,-16 282,-41 86,-23 167,-64 236,-120 60,-50 107,-114 135,-187 29,-75 44,-155 43,-235 0,-191 -73,-339 -219,-443zm-7948 -7c0,149 112,275 260,293l23 3c76,12 149,39 214,80 64,42 114,102 146,171 37,73 55,170 55,291l0 1971c0,281 30,523 90,726 60,203 147,370 262,502 115,131 262,230 426,288 186,65 382,96 578,93 129,0 258,-10 385,-31 254,-40 489,-159 672,-339 68,-64 185,-210 256,-300 9,-11 24,-15 37,-11 13,5 22,17 23,31 0,151 60,296 166,403 107,107 252,167 403,167l778 0c36,0 66,-30 66,-66l0 -216c0,-35 -28,-65 -63,-66 -66,-3 -167,-8 -219,-16 -76,-10 -149,-35 -215,-74 -64,-40 -115,-98 -146,-167 -37,-73 -55,-170 -55,-291l0 -3442c0,-19 -7,-36 -21,-50 -13,-13 -31,-21 -50,-21l-1328 0c-19,0 -36,7 -50,21 -13,13 -21,31 -21,50 0,149 111,274 259,291 10,1 21,2 28,4 76,11 149,40 213,82 63,46 113,108 144,180 37,79 55,183 55,311l0 1694c2,182 -18,364 -60,542 -34,151 -97,294 -187,420 -84,115 -194,208 -322,271 -130,64 -285,97 -468,97 -165,0 -304,-25 -415,-74 -107,-46 -199,-122 -265,-219 -69,-107 -117,-227 -140,-353 -30,-158 -43,-318 -41,-478l0 -2767c0,-39 -32,-71 -71,-71l-1335 0c-38,0 -69,31 -69,69zm-22 4285c-47,-147 -128,-280 -237,-389 -119,-115 -262,-203 -419,-256 -172,-61 -381,-92 -626,-92l-932 0c-68,0 -135,-3 -203,-10 -56,-5 -111,-20 -163,-44 -43,-21 -80,-54 -107,-94 -28,-49 -41,-105 -39,-161 0,-58 10,-115 32,-168 21,-50 50,-96 86,-136 37,-42 80,-78 127,-109 49,-32 100,-62 153,-88 21,3 50,6 85,10 35,4 72,7 112,8 40,1 80,2 120,4 40,2 77,2 108,2 249,0 467,-35 652,-106 174,-63 332,-164 462,-295 123,-127 217,-280 275,-447 64,-181 95,-372 93,-565 0,-235 -27,-432 -91,-588 -67,-175 -165,-337 -290,-477 -22,-25 -43,-47 -62,-67 -22,-22 -25,-56 -8,-82 21,-33 46,-64 73,-93 45,-45 96,-84 152,-115 40,-25 84,-41 131,-46 36,-3 72,3 105,18 31,14 59,33 82,57 8,9 16,18 23,27 21,28 61,35 90,15 37,-25 69,-56 97,-91 34,-43 58,-94 70,-148 11,-52 11,-105 0,-157 -12,-56 -33,-109 -62,-158 -27,-48 -64,-91 -107,-126 -43,-34 -93,-59 -147,-72 -58,-14 -118,-15 -177,-5 -72,13 -140,39 -203,77 -76,43 -143,98 -199,165 -52,63 -97,132 -134,206 -35,69 -63,141 -84,215l-5 16c-5,18 -17,33 -33,41 -16,8 -35,9 -53,3 -29,-11 -59,-21 -91,-31 -88,-27 -177,-47 -268,-61 -97,-14 -195,-22 -293,-21 -260,0 -486,34 -679,104 -181,63 -346,165 -482,301 -131,135 -229,299 -288,478 -64,187 -97,400 -96,638 0,134 17,268 51,397 31,124 80,244 144,355 62,107 140,205 232,288 93,85 200,153 316,201 -188,112 -324,228 -409,347 -132,195 -165,441 -89,664 25,69 60,134 104,193 41,55 90,103 144,144 51,39 106,71 165,97 -133,24 -264,63 -388,117 -120,51 -230,122 -327,209 -95,87 -172,192 -226,309 -58,133 -87,277 -84,421 0,378 142,672 425,883 283,211 712,317 1285,317 370,0 695,-36 969,-108 274,-72 501,-175 681,-307 173,-124 310,-291 399,-484 90,-201 134,-418 131,-638 2,-167 -23,-333 -74,-492zm-2502 -3762c114,-180 303,-270 569,-270 266,0 457,88 569,265 113,177 169,449 169,819 2,155 -11,311 -38,464 -20,114 -63,223 -127,319 -57,82 -135,146 -226,185 -93,40 -206,59 -340,59 -265,0 -456,-82 -572,-245 -116,-165 -175,-420 -175,-771 0,-369 57,-644 171,-825zm1833 4789c-48,125 -130,234 -236,316 -113,88 -265,157 -456,206 -192,49 -435,73 -729,73 -208,0 -381,-21 -518,-64 -137,-43 -244,-103 -325,-177 -79,-73 -137,-166 -169,-269 -32,-109 -48,-223 -47,-337 0,-163 25,-296 76,-397 46,-96 116,-177 203,-237 87,-57 185,-96 288,-114 111,-20 223,-30 336,-30l808 0c121,-1 241,9 360,29 93,15 183,48 263,98 71,47 127,114 160,193 37,82 55,185 55,311 1,136 -22,271 -68,399zm13141 -9610c-64,-204 -154,-370 -273,-500 -119,-129 -268,-228 -433,-288 -186,-66 -383,-98 -581,-95 -126,-1 -251,9 -375,30 -117,19 -231,57 -337,112 -112,59 -214,136 -301,228 -58,60 -161,185 -232,276 -12,15 -31,20 -49,14 -18,-6 -29,-23 -29,-42l0 -168c0,-205 -166,-370 -370,-370l-998 0c-38,0 -69,31 -69,69 0,150 113,276 261,293l22 3c76,12 149,39 214,81 63,42 113,101 146,170 36,74 54,171 54,291l0 3431c0,39 31,70 70,70l1329 0c39,0 71,-32 71,-71l0 -210c0,-35 -28,-65 -63,-66 -66,-3 -168,-8 -220,-16 -76,-10 -149,-35 -215,-75 -64,-40 -115,-98 -147,-167 -36,-73 -54,-170 -54,-291l0 -1734c-1,-170 16,-339 50,-505 29,-151 85,-295 166,-425 77,-122 183,-223 309,-293 126,-72 284,-109 471,-109 166,0 306,25 421,74 111,47 208,123 280,220 75,106 127,226 154,353 34,157 50,317 49,478l0 2772c0,36 30,66 66,66l1301 0c36,0 66,-30 66,-66l0 -216c0,-35 -28,-64 -63,-66 -66,-3 -169,-9 -218,-17 -73,-11 -142,-39 -201,-82 -59,-46 -104,-108 -129,-178 -31,-77 -47,-180 -47,-309l0 -1943c0,-281 -32,-523 -93,-726zm877 3663c-96,87 -174,192 -227,310 -57,121 -85,262 -85,423 0,379 142,674 427,885 285,211 714,317 1289,318 373,0 697,-36 973,-109 276,-72 503,-175 684,-309 172,-125 310,-292 399,-485 90,-201 134,-420 131,-640 1,-168 -24,-334 -75,-494 -46,-148 -127,-282 -237,-391 -119,-114 -263,-200 -419,-253 -173,-62 -382,-93 -629,-93l-935 0c-68,0 -136,-3 -203,-9 -57,-5 -112,-20 -163,-45 -44,-21 -81,-54 -107,-95 -28,-49 -41,-105 -38,-162 -1,-58 10,-115 32,-169 21,-50 50,-96 87,-136 37,-42 80,-79 127,-109 40,-26 81,-50 123,-73 20,-10 42,-14 64,-12l50 6c35,4 73,7 113,8 40,1 81,2 121,4 40,2 77,1 109,1 250,0 468,-35 654,-106 174,-63 333,-165 463,-296 124,-128 218,-281 276,-449 64,-182 95,-373 93,-566 0,-236 -30,-433 -91,-589 -46,-124 -109,-242 -185,-350 -11,-16 -15,-36 -10,-56 5,-19 18,-35 36,-43 30,-15 62,-27 94,-36 61,-17 124,-25 188,-24 47,-2 94,7 136,26 33,15 61,39 82,68 20,27 34,58 43,91 3,12 5,24 7,36 5,35 36,60 71,57 44,-4 88,-14 129,-30 51,-21 97,-52 135,-93 35,-40 62,-86 78,-136 18,-54 27,-111 26,-168 1,-56 -10,-111 -30,-163 -20,-51 -51,-98 -90,-136 -44,-41 -95,-73 -151,-93 -69,-24 -142,-36 -215,-34 -87,-1 -174,14 -256,44 -77,29 -150,66 -219,111 -65,42 -126,90 -182,144 -37,35 -70,68 -99,99 -23,24 -59,28 -86,9 -36,-25 -75,-47 -114,-66 -71,-34 -145,-63 -221,-86 -87,-27 -177,-48 -268,-62 -97,-14 -196,-21 -294,-21 -260,0 -487,34 -680,104 -182,63 -347,166 -483,302 -132,136 -231,299 -290,479 -64,188 -96,401 -96,641 0,134 17,268 51,398 32,125 80,245 144,356 63,108 142,206 234,290 60,55 126,102 197,142 23,13 38,37 39,64 1,27 -12,52 -33,67 -131,90 -229,181 -297,275 -87,120 -129,261 -129,425 -1,82 13,164 41,242 25,69 60,135 105,193 41,55 90,104 144,145 26,20 54,38 82,54 13,6 20,20 18,34 -2,14 -12,25 -26,28 -103,23 -204,56 -301,97 -120,51 -230,122 -327,210zm1006 -3871c114,-181 304,-272 570,-272 266,0 459,89 572,266 113,177 169,451 169,821 2,156 -11,312 -39,465 -19,115 -62,224 -126,321 -58,82 -137,146 -229,185 -92,40 -205,60 -340,60 -265,0 -457,-82 -574,-246 -116,-163 -176,-422 -176,-774 0,-371 57,-647 171,-828zm-573 4153c46,-96 116,-178 203,-238 88,-57 186,-97 290,-115 111,-20 224,-30 337,-30l809 0c122,-1 243,8 363,28 94,15 184,48 264,99 71,48 127,115 160,194 36,82 55,185 55,312 1,137 -22,272 -69,400 -48,126 -130,235 -237,316 -112,88 -265,158 -457,207 -192,50 -436,74 -731,74 -210,0 -383,-21 -520,-64 -137,-43 -245,-102 -325,-177 -79,-74 -137,-167 -169,-270 -33,-110 -49,-224 -49,-338 0,-164 25,-296 77,-399zm-13760 -4679c0,149 112,275 260,293l23 3c76,12 149,39 214,80 64,42 114,102 146,171 37,73 55,170 55,291l0 1971c0,281 30,523 90,726 60,203 147,370 262,502 115,131 262,230 426,288 186,65 382,96 578,93 129,0 258,-10 385,-31 254,-40 489,-159 672,-339 68,-64 185,-210 256,-300 9,-11 24,-15 37,-11 13,5 22,17 23,31 0,314 255,569 569,569l778 0c36,0 66,-30 66,-66l0 -215c0,-35 -28,-65 -63,-66 -66,-3 -167,-8 -219,-16 -76,-10 -149,-35 -215,-74 -64,-40 -115,-98 -146,-167 -37,-73 -55,-170 -55,-291l0 -3442c0,-39 -31,-70 -70,-70l-1328 0c-39,0 -70,31 -70,70 0,149 111,274 259,291 10,1 21,2 28,4 76,11 149,40 213,82 63,46 113,109 144,180 37,79 55,183 55,311l0 1694c2,182 -18,364 -60,542 -34,151 -98,294 -187,421 -84,115 -194,208 -322,271 -130,64 -285,97 -468,97 -165,0 -304,-25 -415,-74 -107,-46 -199,-122 -265,-219 -69,-107 -117,-227 -140,-353 -30,-158 -43,-318 -41,-478l0 -2768c0,-19 -7,-37 -21,-50 -13,-13 -31,-21 -50,-21l-1334 0c-38,0 -69,31 -69,69zm6719 1790c-629,19 -1098,134 -1409,345 -310,211 -466,535 -466,972 0,225 33,420 97,584 58,155 149,295 268,410 116,109 254,191 405,241 164,53 335,80 507,79 172,0 319,-19 440,-58 117,-36 227,-91 327,-162 98,-72 187,-155 265,-249 82,-97 288,-315 288,-315l0 362c0,189 153,343 343,343l862 0c36,0 66,-30 66,-66l0 -216c0,-35 -27,-64 -62,-66 -67,-3 -133,-11 -198,-25 -61,-16 -116,-49 -158,-96 -43,-52 -74,-114 -89,-181 -20,-94 -30,-190 -28,-285l0 -2131c0,-263 -32,-484 -95,-665 -55,-168 -152,-319 -282,-439 -126,-113 -283,-194 -470,-243 -187,-49 -407,-74 -659,-74 -192,-1 -384,13 -574,43 -163,25 -321,72 -472,139 -125,54 -234,137 -320,243 -78,99 -116,219 -116,361 0,191 59,325 178,401 106,69 254,108 446,115 19,1 38,-6 52,-19 14,-13 22,-31 23,-50 2,-96 11,-192 27,-287 16,-102 54,-199 111,-285 57,-83 136,-147 229,-187 97,-44 226,-66 383,-66 169,0 304,25 404,74 96,45 176,118 230,208 57,99 92,209 104,322 17,135 25,271 24,408l0 429c0,36 -28,65 -64,66l-619 22zm683 979c2,161 -24,321 -76,473 -46,135 -121,258 -218,361 -98,101 -216,179 -347,229 -144,55 -297,82 -452,80 -226,0 -396,-63 -503,-191 -107,-127 -163,-319 -163,-576 -3,-144 18,-288 62,-426 40,-121 111,-228 207,-311 96,-85 222,-149 379,-197 156,-47 351,-76 584,-86l451 -21c19,-1 38,6 52,20 14,13 22,32 22,52l1 591zm-10599 -2392c64,42 115,102 146,171 37,73 55,170 55,291l0 2564c0,128 -18,231 -55,309 -30,72 -80,134 -144,179 -63,43 -136,71 -212,82 -67,11 -246,17 -361,19 -19,0 -36,8 -49,21 -13,13 -20,31 -20,50l0 206c0,19 7,36 20,49 13,13 31,20 49,20l2375 0c39,0 70,-31 70,-70l0 -206c0,-39 -31,-70 -70,-70l-158 0c-87,0 -174,-6 -259,-18 -76,-11 -149,-36 -215,-74 -64,-40 -114,-98 -145,-166 -37,-73 -55,-170 -55,-291l0 -1292c0,-105 5,-221 17,-350 11,-130 29,-259 54,-387 26,-129 59,-255 101,-380 37,-115 88,-225 153,-328 55,-89 126,-167 210,-229 80,-57 176,-87 273,-86 160,0 273,50 338,150 57,90 89,232 95,424 1,38 34,68 72,67 96,-2 190,-16 283,-41 86,-23 167,-63 236,-119 60,-49 107,-113 135,-185 29,-76 44,-156 43,-237 0,-190 -73,-338 -219,-442 -146,-104 -369,-157 -669,-157 -183,0 -333,23 -454,70 -113,42 -216,108 -303,192 -83,84 -152,180 -206,286 -29,56 -82,146 -127,220 -9,17 -28,25 -47,20 -18,-5 -31,-22 -31,-41l0 -319c-1,-193 -157,-349 -350,-349l-1146 0c-39,0 -70,31 -70,70 0,152 120,277 272,284 66,3 126,7 154,11 76,11 149,39 214,80z"/>
 </g>
</svg>
