<svg id="Flat" height="512" viewBox="0 0 512 512" width="512" xmlns="http://www.w3.org/2000/svg"><path d="m88 144h336a32 32 0 0 1 32 32v240a0 0 0 0 1 0 0h-400a0 0 0 0 1 0 0v-240a32 32 0 0 1 32-32z" fill="#e9eef2"/><path d="m104 176h304a16 16 0 0 1 16 16v208a0 0 0 0 1 0 0h-336a0 0 0 0 1 0 0v-208a16 16 0 0 1 16-16z" fill="#3397e8"/><path d="m24 400h464a0 0 0 0 1 0 0 64 64 0 0 1 -64 64h-336a64 64 0 0 1 -64-64 0 0 0 0 1 0 0z" fill="#dadcde"/><path d="m294.111 432h-76.223a16 16 0 0 1 -14.31-8.845l-11.578-23.155h128l-11.578 23.155a16 16 0 0 1 -14.311 8.845z" fill="#e9eef2"/><path d="m136 48a16 16 0 0 0 -16 16v304h272v-304a16 16 0 0 0 -16-16z" fill="#e9eef2"/><path d="m120 112h272v256h-272z" fill="#dadcde"/><circle cx="152" cy="80" fill="#eb423f" r="8"/><circle cx="184" cy="80" fill="#ffd33a" r="8"/><circle cx="216" cy="80" fill="#3dc285" r="8"/><path d="m184 144h176v168h-176z" fill="#c3c6c7"/><path d="m264 176h-112v160h176v-96z" fill="#e9eef2"/><circle cx="360" cy="336" fill="#35a872" r="64"/><path d="m328 336h16v32h32v-32h16l-32-32z" fill="#3dc285"/><g fill="#dadcde"><path d="m264 248h-80a8 8 0 0 1 0-16h80a8 8 0 0 1 0 16z"/><path d="m264 216h-64a8 8 0 0 1 0-16h64a8 8 0 0 1 0 16z"/><path d="m248 280h-64a8 8 0 0 1 0-16h64a8 8 0 0 1 0 16z"/><path d="m296 280h-16a8 8 0 0 1 0-16h16a8 8 0 0 1 0 16z"/><path d="m296 312h-112a8 8 0 0 1 0-16h112a8 8 0 0 1 0 16z"/><path d="m264 240h64l-64-64z"/></g></svg>